<svg fill="none" height="40" viewBox="0 0 263 40" width="263" xmlns="http://www.w3.org/2000/svg" xmlns:xlink="http://www.w3.org/1999/xlink"><linearGradient id="a" gradientUnits="userSpaceOnUse" x1="3.39162" x2="36.2604" y1="-3.334" y2="43.0419"><stop offset="0" stop-color="#d64541"/><stop offset=".53" stop-color="#d4433f"/><stop offset=".79" stop-color="#cc3c3a"/><stop offset="1" stop-color="#bf3030"/></linearGradient><linearGradient id="b"><stop offset="0" stop-color="#fff"/><stop offset="1" stop-color="#c9c9c9"/></linearGradient><linearGradient id="c" gradientUnits="userSpaceOnUse" x1=".269412" x2="41.3352" xlink:href="#b" y1="-.358" y2="19.3911"/><linearGradient id="d" gradientUnits="userSpaceOnUse" x1="10735.3" x2="35956.2" xlink:href="#b" y1="481.759" y2="25234.7"/><path d="m20.1068 40c11.1047 0 20.1068-8.9543 20.1068-20 0-11.04569-9.0021-20-20.1068-20-11.10467 0-20.1068 8.95431-20.1068 20 0 11.0457 9.00213 20 20.1068 20z" fill="url(#a)"/><path d="m14.1246 9.14933c-.5634.544-1.0213 1.18667-1.3511 1.89597-.3167.7108-.4783 1.4807-.4739 2.2587 0 0-.0133 2.32-.024 2.5427-.0427.972-.2323 1.404-.8144 2.104-.7703.9253-2.41237.8-2.41237.8v2.4986s1.64207-.1253 2.41237.8c.5821.7014.7717 1.1334.8144 2.104.0093.2227.024 2.5427.024 2.5427-.004.7773.1562 1.5467.4739 2.2587.3298.7093.7877 1.352 1.3511 1.8946.5433.5227 2.2121 1.6507 4.2614 1.6507h8.2558v-2.5h-8.0422c-2.363 0-3.2681-1.5507-3.4844-1.996-.1932-.4059-.2909-.8506-.2857-1.3v-1.8573c0-1.0894-.2096-2.0934-.6208-2.984-.6368-1.4134-1.1882-1.8627-1.1882-1.8627s.5514-.4507 1.1882-1.8613c.4125-.8907.6208-1.8947.6208-2.984v-1.8574c-.0054-.4493.0921-.8933.2843-1.3.2177-.4466 1.1215-1.9973 3.4845-1.9973h8.0435v-2.5h-8.2558c-2.0493 0-3.7181 1.128-4.2614 1.64933z" fill="url(#c)"/><path d="m20.1068 1.5c-10.2717 0-18.59826 8.28267-18.59826 18.5 0 10.2173 8.32656 18.5 18.59696 18.5 10.273 0 18.5995-8.2827 18.5995-18.5 0-10.21733-8.3252-18.5-18.5995-18.5zm0 35.5c-9.4386 0-17.08968-7.6107-17.08968-17s7.65108-17 17.08968-17 17.091 7.6107 17.091 17-7.651 17-17.091 17z" fill="url(#d)"/><path d="m62.8704 28.7293c1.6133.0075 3.1967-.4344 4.5725-1.276 1.355-.8493 2.4925-2.152 3.4136-3.9066l3.4617 1.48c-1.2495 2.4573-2.8583 4.2933-4.8274 5.512-1.9765 1.261-4.2764 1.9232-6.6217 1.9066-1.6623.0044-3.3089-.3219-4.8435-.96-2.9713-1.2681-5.345-3.6225-6.6351-6.5813-.639-1.5236-.968-3.1589-.968-4.8107s.329-3.2871.968-4.8106c1.2968-2.9512 3.6688-5.29922 6.6351-6.56803 1.5351-.6382 3.182-.96456 4.8448-.96 2.3453-.01658 4.6452.64566 6.6217 1.90666 1.9638 1.21737 3.5739 3.05337 4.8261 5.50937l-3.4617 1.48c-.9211-1.7627-2.0586-3.0534-3.4136-3.8734-1.3692-.86-2.9551-1.3132-4.5725-1.3066-1.1441-.0182-2.2799.1958-3.3387.6289-1.0588.4332-2.0186 1.0765-2.8211 1.8911-.8049.8014-1.4435 1.7535-1.8793 2.8019-.4357 1.0484-.66 2.1723-.66 3.3074s.2243 2.259.66 3.3074c.4358 1.0484 1.0744 2.0005 1.8793 2.8019.8024.8147 1.7622 1.4581 2.821 1.8913s2.1947.6471 3.3388.6287zm17.4982 1.0934c-.8498-.8184-1.5223-1.8023-1.9758-2.8908-.4536-1.0885-.6785-2.2584-.6609-3.4372 0-2.4587.8798-4.564 2.638-6.3147.8258-.8465 1.816-1.5157 2.9098-1.9667 1.0939-.4509 2.2684-.6742 3.4516-.656 2.4725 0 4.5885.8734 6.3494 2.6227s2.6407 3.8533 2.638 6.3147c.0174 1.1789-.2077 2.3489-.6615 3.4374-.4537 1.0885-1.1265 2.0723-1.9765 2.8906-1.7582 1.748-3.8743 2.6226-6.3494 2.6226-1.1832.0182-2.3577-.205-3.4516-.656-1.0938-.4509-2.084-1.1201-2.9098-1.9666zm2.6393-10.052c-.8633.8562-1.4012 1.986-1.5213 3.1952s.1851 2.4225.8631 3.4314c.6809 1.0111 1.6909 1.756 2.8588 2.1083 1.1679.3524 2.4219.2906 3.5494-.1749 1.1259-.4623 2.056-1.3011 2.631-2.3727.575-1.0717.7591-2.3097.521-3.502-.2417-1.1929-.8898-2.2652-1.8339-3.0346-.9442-.7694-2.1261-1.1883-3.3447-1.1854-.6924-.0093-1.3795.1217-2.0198.3853-.6402.2635-1.2202.6541-1.7049 1.148v.0014zm136.0801 10.052c-.85-.8183-1.522-1.8021-1.976-2.8906s-.679-2.2585-.662-3.4374c0-2.4587.88-4.564 2.638-6.3147.826-.8465 1.816-1.5157 2.91-1.9667 1.094-.4509 2.269-.6742 3.452-.656 2.472 0 4.588.8734 6.349 2.6227s2.641 3.8533 2.638 6.3147c.018 1.1789-.208 2.3489-.661 3.4374-.454 1.0885-1.127 2.0723-1.977 2.8906-1.758 1.748-3.874 2.6226-6.349 2.6226-1.183.0182-2.358-.205-3.452-.656-1.094-.4509-2.084-1.1201-2.91-1.9666zm2.638-10.052c-.863.8562-1.401 1.986-1.521 3.1952s.185 2.4225.863 3.4314c.681 1.0111 1.691 1.756 2.859 2.1083 1.168.3524 2.422.2906 3.549-.1749 1.126-.4623 2.056-1.3011 2.631-2.3727.575-1.0717.76-2.3097.521-3.502-.241-1.1929-.889-2.2652-1.834-3.0346-.944-.7694-2.126-1.1883-3.344-1.1854-.693-.0093-1.38.1217-2.02.3853-.64.2635-1.22.6541-1.705 1.148v.0014zm18.775 10.052c-.85-.8183-1.523-1.8021-1.977-2.8906-.453-1.0885-.679-2.2585-.661-3.4374 0-2.4587.88-4.564 2.638-6.3147.826-.8465 1.816-1.5157 2.91-1.9667 1.094-.4509 2.268-.6742 3.451-.656 2.473 0 4.59.8734 6.35 2.6227 1.762 1.7493 2.64 3.8533 2.638 6.3147.017 1.1789-.208 2.3489-.662 3.4374s-1.126 2.0723-1.976 2.8906c-1.759 1.748-3.875 2.6226-6.35 2.6226-1.183.0182-2.357-.205-3.451-.656-1.094-.4509-2.084-1.1201-2.91-1.9666zm2.638-10.052c-.863.8564-1.401 1.9862-1.521 3.1954-.12 1.2093.186 2.4224.864 3.4312.681 1.0108 1.691 1.7555 2.858 2.1078 1.168.3523 2.421.2907 3.549-.1744 1.126-.4621 2.056-1.3007 2.632-2.3724.575-1.0717.759-2.3098.521-3.5023-.242-1.1931-.89-2.2656-1.834-3.035-.945-.7695-2.127-1.1882-3.346-1.185-.692-.0092-1.379.122-2.019.3855-.64.2636-1.22.6541-1.704 1.1478zm-113.575-5.2267c2.474 0 4.59.8747 6.351 2.624 1.76 1.7493 2.639 3.8533 2.638 6.3147l-.033 1.14h-14.126c.137.8666.667 1.7786 1.591 2.7386.846.7826 1.927 1.264 3.075 1.3697 1.149.1056 2.3-.1706 3.274-.7857.817-.4853 1.54-1.3333 2.166-2.5466l3.42 1.472c-.954 1.8986-2.144 3.292-3.568 4.1786-1.428.9188-3.092 1.4012-4.79 1.388-2.473 0-4.589-.8733-6.35-2.6226-1.759-1.7494-2.646-3.8587-2.656-6.3267 0-2.46.885-4.564 2.656-6.316 1.773-1.7507 3.89-2.6267 6.354-2.6267zm4.649 6.396c-.267-.5387-.787-1.108-1.56-1.7107-.898-.6484-1.979-.9974-3.087-.9974-1.109 0-2.19.349-3.088.9974-.753.6134-1.269 1.1827-1.545 1.7107h9.278zm60.825 5.9347c-.956 1.8986-2.145 3.2933-3.57 4.1786-1.428.9195-3.095 1.4023-4.794 1.3894-2.474 0-4.598-.8747-6.371-2.624-.85-.8179-1.523-1.8015-1.977-2.8898-.453-1.0883-.678-2.2581-.661-3.4369 0-2.4587.879-4.564 2.638-6.3147 1.758-1.7506 3.882-2.6266 6.371-2.624 1.699-.0129 3.366.4699 4.794 1.3894 1.425.8866 2.614 2.276 3.57 4.1666l-3.426 1.472c-.627-1.2026-1.35-2.052-2.172-2.5466-1.074-.6709-2.354-.9362-3.607-.7479-1.253.1882-2.397.8176-3.227 1.7745-.827.9546-1.282 2.1746-1.282 3.4367s.455 2.4821 1.282 3.4367c.83.9572 1.974 1.5868 3.228 1.7751 1.253.1883 2.533-.0772 3.607-.7485.816-.4853 1.541-1.3346 2.171-2.548zm-81.618-19.12003v8.48663c-1.735-1.2486-3.858-1.8409-5.989-1.6711-2.132.1697-4.134 1.0904-5.649 2.5978-1.758 1.7493-2.6376 3.8533-2.6376 6.3147-.0011 1.6525.4562 3.273 1.3206 4.6818.865 1.4088 2.104 2.5508 3.579 3.2995 1.478.7521 3.135 1.0831 4.789.9568 1.653-.1263 3.241-.7051 4.587-1.6728v1.6973h3.725v-24.69063zm-1.529 19.46663c-.857.8564-1.98 1.3959-3.185 1.5296-1.204.1338-2.419-.1461-3.443-.7936-1.022-.6449-1.792-1.6204-2.182-2.7637-.389-1.1433-.374-2.3854.043-3.5189.42-1.1349 1.215-2.0927 2.254-2.715 1.039-.6224 2.26-.872 3.46-.7077 1.2.1611 2.308.7269 3.141 1.6036.834.8767 1.342 2.0116 1.441 3.2164v.8307c-.08 1.2576-.625 2.4408-1.529 3.32zm61.083-5.888c-.078-.1048-.159-.2071-.243-.3066-1.45-1.6707-3.88-2.6-6.689-2.7867-3.95-.2533-6.078-1.2707-6.078-3.0573 0-.12.005-.2374.015-.3507.099-1.108.671-1.9613 1.718-2.56.502-.296 1.051-.5047 1.623-.6173.5-.124 1.014-.1867 1.529-.1894 1.627 0 3.305.584 4.419 1.7494.634.5533 1.677 2.3253 1.677 2.3253l3.301-1.2347c-.31-.996-1.396-2.6933-2.283-3.6693-1.829-1.92133-4.407-2.88133-7.115-2.88133-2.277 0-4.224.61733-5.845 1.852-1.838 1.40003-2.757 3.26003-2.757 5.58003 0 1.44.425 2.6666 1.275 3.68.077.1026.155.204.244.3066 1.449 1.6707 3.879 2.6 6.689 2.7867 3.949.2533 6.078 1.2707 6.078 3.056 0 1.2813-.578 2.2533-1.733 2.9147-.502.2959-1.051.5047-1.623.6173-.501.1227-1.013.1867-1.529.1867-1.628 0-3.307-.5827-4.42-1.7467-.633-.5547-1.675-2.3267-1.675-2.3267l-3.303 1.2347c.311.996 1.396 2.6933 2.284 3.6707 1.829 1.92 4.406 2.88 7.116 2.88 2.275 0 4.222-.6174 5.842-1.8507 1.837-1.4013 2.754-3.2627 2.754-5.5827 0-1.44-.425-2.6666-1.275-3.68zm86.301-13.57863h3.725v24.69203h-3.725zm-46.238 13.96533c-.036-3.968-3.278-7.1693-7.268-7.176-1.26-.0195-2.501.3006-3.594.9267v-7.71603h-3.725v24.69063h3.725v-10.7253c.002-.9432.379-1.847 1.048-2.5126.67-.6656 1.576-1.0385 2.52-1.0367.945-.0018 1.851.3711 2.521 1.0367.669.6656 1.046 1.5694 1.048 2.5126v10.7253h3.725zm-60.205-3.472v-3.704h-1.862c-1.898-.028-3.752.5685-5.276 1.6973v-1.6973h-3.723v17.9013h3.724v-9.368c.109-1.3204.713-2.5514 1.69-3.4467.978-.8953 2.258-1.3891 3.585-1.3826z" fill="#d64541"/></svg>